HIERARCHY
ROOT Hips
{
 OFFSET 0.000000 0.000000 0.000000
 CHANNELS 6 Xposition Yposition Zposition Yrotation Xrotation Zrotation
 JOINT Chest
 {
  OFFSET 0.000000 9.585900 0.002600
  CHANNELS 3 Yrotation Xrotation Zrotation
  JOINT Chest2
  {
   OFFSET 0.000000 9.601200 -0.005300
   CHANNELS 3 Yrotation Xrotation Zrotation
   JOINT Chest3
   {
    OFFSET 0.000000 9.561800 0.000000
    CHANNELS 3 Yrotation Xrotation Zrotation
    JOINT Chest4
    {
     OFFSET 0.000000 9.552100 0.000000
     CHANNELS 3 Yrotation Xrotation Zrotation
     JOINT Neck
     {
      OFFSET 0.000000 14.453000 0.000000
      CHANNELS 3 Yrotation Xrotation Zrotation
      JOINT Head
      {
       OFFSET 0.000000 8.936500 -0.011300
       CHANNELS 3 Yrotation Xrotation Zrotation
       End Site
       {
        OFFSET 0.000000 17.073600 -0.006000
       }
      }
     }
     JOINT RightCollar
     {
      OFFSET -2.921100 9.558500 0.000000
      CHANNELS 3 Yrotation Xrotation Zrotation
      JOINT RightShoulder
      {
       OFFSET -13.519700 0.000000 0.000000
       CHANNELS 3 Yrotation Xrotation Zrotation
       JOINT RightElbow
       {
        OFFSET 0.000000 -29.696600 0.000000
        CHANNELS 3 Yrotation Xrotation Zrotation
        JOINT RightWrist
        {
         OFFSET 0.000000 -24.004700 0.000000
         CHANNELS 3 Yrotation Xrotation Zrotation
         End Site
         {
          OFFSET 0.000000 -17.728500 0.000000
         }
        }
       }
      }
     }
     JOINT LeftCollar
     {
      OFFSET 2.921100 9.558500 0.000000
      CHANNELS 3 Yrotation Xrotation Zrotation
      JOINT LeftShoulder
      {
       OFFSET 13.519700 0.000000 0.000000
       CHANNELS 3 Yrotation Xrotation Zrotation
       JOINT LeftElbow
       {
        OFFSET 0.000000 -29.696600 0.000000
        CHANNELS 3 Yrotation Xrotation Zrotation
        JOINT LeftWrist
        {
         OFFSET 0.000000 -24.004700 0.000000
         CHANNELS 3 Yrotation Xrotation Zrotation
         End Site
         {
          OFFSET 0.000000 -17.728500 0.000000
         }
        }
       }
      }
     }
    }
   }
  }
 }
 JOINT RightHip
 {
  OFFSET -7.771700 -0.012900 -0.001300
  CHANNELS 3 Yrotation Xrotation Zrotation
  JOINT RightKnee
  {
   OFFSET 0.000000 -40.869800 0.001200
   CHANNELS 3 Yrotation Xrotation Zrotation
   JOINT RightAnkle
   {
    OFFSET 0.000000 -39.717900 0.002100
    CHANNELS 3 Yrotation Xrotation Zrotation
    JOINT RightToe
    {
     OFFSET 0.000000 -4.965400 11.033500
     CHANNELS 3 Yrotation Xrotation Zrotation
     End Site
     {
      OFFSET 0.000000 -1.423100 5.872300
     }
    }
   }
  }
 }
 JOINT LeftHip
 {
  OFFSET 7.771700 -0.012900 -0.001300
  CHANNELS 3 Yrotation Xrotation Zrotation
  JOINT LeftKnee
  {
   OFFSET 0.000000 -40.869800 0.001200
   CHANNELS 3 Yrotation Xrotation Zrotation
   JOINT LeftAnkle
   {
    OFFSET 0.000000 -39.717900 0.002100
    CHANNELS 3 Yrotation Xrotation Zrotation
    JOINT LeftToe
    {
     OFFSET 0.000000 -4.965400 11.033500
     CHANNELS 3 Yrotation Xrotation Zrotation
     End Site
     {
      OFFSET 0.000000 -1.423100 5.872300
     }
    }
   }
  }
 }
}
MOTION
Frames: 12
Frame Time: 0.008333
-22.225109 52.862038 6.233302 -178.172705 -15.109794 -1.916655 0.359919 14.051478 0.078460 0.024437 1.209752 0.014971 0.050309 2.034511 0.020676 0.341865 12.630012 0.137513 0.535891 18.394353 1.387806 0.254483 -6.371415 1.330492 -0.499939 -0.429687 3.399434 -1.346656 -7.818918 -4.384563 -88.462285 -78.234437 115.510168 -7.266092 -12.299873 -9.843251 -4.876339 -0.247346 0.941466 7.800194 -7.466424 6.467760 82.005171 -63.525031 -115.919748 1.912266 -3.384549 3.052854 1.874411 -63.288578 10.764018 -167.003628 85.884884 -168.533761 -13.050535 -22.578057 14.227638 0.007895 -0.033843 0.007651 4.598335 -62.038963 -3.760006 121.523729 77.719647 119.610949 -6.177840 -19.618349 -1.385092 -0.005504 0.086538 -0.005086
-22.228381 52.862143 6.234179 -178.180997 -15.101044 -1.913437 0.359275 14.056510 0.081100 0.028496 1.210639 0.018330 0.049867 2.033051 0.017505 0.335508 12.639486 0.140149 0.545912 18.392639 1.380519 0.262925 -6.372328 1.315882 -0.496779 -0.440608 3.395283 -1.338063 -7.818729 -4.392975 -88.499074 -78.230891 115.549143 -7.267675 -12.304975 -9.851883 -4.873951 -0.258468 0.955466 7.812528 -7.469511 6.480229 81.947153 -63.551991 -115.887160 1.923130 -3.411385 3.058431 1.881386 -63.296564 10.730443 -167.329275 85.886450 -168.886783 -12.925122 -22.574919 14.225660 -0.019412 -0.052636 -0.006098 4.598452 -62.044692 -3.758210 121.507449 77.719438 119.587755 -6.175163 -19.620513 -1.384069 -0.007064 0.089248 -0.005036
-22.231734 52.862673 6.233971 -178.182497 -15.099048 -1.910974 0.356516 14.067956 0.086261 0.030270 1.211772 0.021205 0.050173 2.023036 0.008582 0.333361 12.680923 0.166031 0.548534 18.369262 1.356427 0.267805 -6.376533 1.301721 -0.496853 -0.477686 3.372713 -1.334037 -7.824440 -4.399846 -88.505605 -78.229704 115.556556 -7.269515 -12.317091 -9.859539 -4.877484 -0.296657 0.956139 7.822444 -7.473398 6.483446 81.951281 -63.531412 -115.895227 1.895978 -3.387160 3.056210 1.870150 -63.295681 10.713187 -167.641031 85.890251 -169.220591 -12.874860 -22.571339 14.233495 -0.013383 -0.056357 -0.011589 4.593909 -62.043732 -3.758211 121.494168 77.718369 119.567778 -6.173281 -19.623458 -1.383384 -0.005084 0.091199 -0.003812
-22.236678 52.863291 6.233639 -178.181930 -15.098132 -1.898209 0.354923 14.088327 0.094675 0.027821 1.194078 0.003434 0.050380 2.036621 0.019967 0.329888 12.670388 0.156262 0.559225 18.386169 1.357357 0.263689 -6.390168 1.293453 -0.497483 -0.480991 3.369569 -1.333955 -7.823949 -4.405109 -88.521648 -78.226110 115.572561 -7.265660 -12.340410 -9.870881 -4.881938 -0.297625 0.973165 7.828689 -7.475674 6.471229 81.913065 -63.558118 -115.861168 1.895707 -3.396129 3.055864 1.859074 -63.297736 10.751774 -166.981692 85.886237 -168.519083 -13.303177 -22.530457 14.304985 0.006669 -0.019504 0.006264 4.609138 -62.041410 -3.782258 121.473478 77.715996 119.541011 -6.176010 -19.621908 -1.382353 -0.006348 0.090060 -0.002354
-22.241009 52.863944 6.233424 -178.179614 -15.096331 -1.887548 0.352297 14.102374 0.096319 0.027584 1.192827 0.003174 0.053201 2.057562 0.031564 0.327046 12.661521 0.151134 0.559358 18.384020 1.344674 0.259045 -6.403767 1.285734 -0.500443 -0.500094 3.360157 -1.336635 -7.817942 -4.411716 -88.594616 -78.226418 115.643467 -7.271546 -12.396767 -9.874520 -4.890937 -0.323702 0.965768 7.823735 -7.475723 6.506110 81.894377 -63.552936 -115.847684 1.892174 -3.393824 3.054825 1.864076 -63.301975 10.778387 -166.374915 85.883022 -167.871532 -13.688466 -22.494220 14.373870 -0.008867 0.003473 0.013608 4.621454 -62.039933 -3.803561 121.439746 77.713301 119.502563 -6.180957 -19.618809 -1.382178 -0.004761 0.088874 -0.000920
-22.243081 52.864784 6.232760 -178.177371 -15.096768 -1.887892 0.350816 14.109454 0.100740 0.031185 1.216669 0.018616 0.049360 2.041700 0.019689 0.328333 12.673049 0.160011 0.565855 18.383153 1.334356 0.284065 -6.387948 1.262464 -0.506770 -0.513224 3.354146 -1.333909 -7.815929 -4.418433 -88.625686 -78.225315 115.680795 -7.276492 -12.427387 -9.880285 -4.900762 -0.340736 0.983353 7.821286 -7.487407 6.514801 81.869903 -63.554449 -115.823282 1.888603 -3.388069 3.047877 1.850453 -63.297904 10.775455 -166.474463 85.884652 -167.984247 -13.649416 -22.498333 14.379486 -0.005452 -0.003547 0.003024 4.612896 -62.037325 -3.800449 121.432284 77.711634 119.492339 -6.181377 -19.624654 -1.387988 -0.005823 0.091846 0.003378
-22.244123 52.865382 6.233060 -178.183672 -15.090987 -1.889073 0.357438 14.110850 0.108027 0.034056 1.226095 0.025342 0.049817 2.044979 0.020733 0.339120 12.712580 0.185409 0.546551 18.336620 1.301760 0.286953 -6.390299 1.256365 -0.523746 -0.566256 3.325643 -1.335985 -7.808975 -4.416657 -88.632108 -78.227210 115.699845 -7.278772 -12.448494 -9.888645 -4.935393 -0.394385 1.018280 7.842372 -7.491279 6.494357 81.833255 -63.582147 -115.809471 1.923024 -3.420102 3.060028 1.840175 -63.299816 10.757788 -166.885025 85.889381 -168.425446 -13.435743 -22.516612 14.353450 0.005211 -0.019504 -0.011610 4.608357 -62.042541 -3.792345 121.428344 77.710065 119.487146 -6.180919 -19.626654 -1.391398 -0.004069 0.091101 0.003902
-22.243751 52.866151 6.232777 -178.184744 -15.088063 -1.897266 0.366760 14.137128 0.139644 0.029263 1.205229 0.009578 0.053064 2.061299 0.030082 0.339799 12.716742 0.187990 0.542403 18.320417 1.289230 0.308081 -6.374559 1.245744 -0.530327 -0.586169 3.315445 -1.322305 -7.786654 -4.407618 -88.704311 -78.241121 115.760454 -7.273128 -12.465195 -9.887343 -4.949258 -0.425623 1.033302 7.841015 -7.495984 6.539352 81.835668 -63.519253 -115.806872 1.924127 -3.421555 3.060395 1.821079 -63.296814 10.731864 -167.547658 85.895621 -169.127598 -13.093844 -22.548168 14.302144 0.021016 -0.040016 -0.026598 4.591563 -62.045976 -3.773692 121.425482 77.709966 119.485430 -6.180485 -19.626874 -1.394405 -0.003716 0.088801 0.002738
-22.244430 52.866876 6.232446 -178.185934 -15.085324 -1.896662 0.369463 14.144648 0.146931 0.028356 1.203499 0.007401 0.053525 2.062577 0.030549 0.341008 12.721536 0.190755 0.569190 18.352100 1.296729 0.307750 -6.389624 1.235581 -0.531652 -0.590006 3.311634 -1.314051 -7.778350 -4.407601 -88.706255 -78.244907 115.755250 -7.281602 -12.470532 -9.892854 -4.955110 -0.442746 1.041023 7.844176 -7.496761 6.550368 81.819322 -63.532092 -115.807710 1.924239 -3.430440 3.065626 1.818356 -63.298185 10.732920 -167.709845 85.898928 -169.291424 -13.050760 -22.553242 14.292104 0.021427 -0.037930 -0.025568 4.585933 -62.049099 -3.768835 121.424736 77.710246 119.482015 -6.183016 -19.623566 -1.393866 -0.000791 0.084883 0.001541
-22.246617 52.867753 6.231323 -178.184642 -15.087613 -1.886134 0.366247 14.150293 0.138314 0.030544 1.215644 0.015137 0.052020 2.056830 0.025894 0.341750 12.726951 0.193339 0.567826 18.344086 1.291408 0.314215 -6.382501 1.234585 -0.534143 -0.599515 3.305156 -1.304280 -7.767113 -4.406551 -88.670172 -78.240345 115.714450 -7.280390 -12.452719 -9.885620 -4.960595 -0.461946 1.049116 7.844281 -7.504305 6.588311 81.801327 -63.532233 -115.804342 1.886080 -3.441728 3.074160 1.826377 -63.297379 10.754454 -167.226317 85.895975 -168.780528 -13.250007 -22.537021 14.318335 0.009803 -0.020677 -0.013912 4.596330 -62.041819 -3.783514 121.412970 77.714041 119.466600 -6.185115 -19.623660 -1.395783 0.003278 0.084578 0.003574
-22.246664 52.868636 6.230256 -178.183116 -15.089522 -1.887706 0.367533 14.164461 0.148692 0.030724 1.217925 0.015651 0.052054 2.060603 0.026679 0.342305 12.737673 0.198482 0.572199 18.345042 1.288398 0.310698 -6.397020 1.228685 -0.539443 -0.623783 3.290490 -1.296745 -7.758027 -4.403946 -88.575493 -78.240882 115.622624 -7.273203 -12.432584 -9.877055 -4.984510 -0.499099 1.095855 7.871195 -7.503627 6.577911 81.796290 -63.575733 -115.824966 1.920677 -3.465083 3.092408 1.820685 -63.293028 10.756727 -167.149597 85.894863 -168.713246 -13.158712 -22.545114 14.303912 0.011331 -0.024935 -0.014096 4.589585 -62.039102 -3.776545 121.427906 77.718258 119.478943 -6.181783 -19.626092 -1.395565 0.004065 0.084722 0.003979
-22.246664 52.869328 6.229814 -178.181105 -15.088091 -1.889768 0.370155 14.171372 0.159253 0.030788 1.219867 0.016182 0.059395 2.080009 0.038449 0.334667 12.730047 0.195293 0.589967 18.372841 1.299479 0.300313 -6.417347 1.215465 -0.544989 -0.639397 3.280194 -1.294652 -7.751709 -4.406433 -88.336281 -78.247320 115.392745 -7.269650 -12.406733 -9.856351 -4.995019 -0.525697 1.112338 7.873769 -7.518209 6.595399 81.797073 -63.591380 -115.833113 1.934792 -3.465847 3.094937 1.815731 -63.292621 10.756065 -167.216207 85.896642 -168.787899 -13.074628 -22.551284 14.287042 0.013104 -0.029391 -0.012892 4.581413 -62.041276 -3.770448 121.428198 77.719925 119.478029 -6.182023 -19.623089 -1.395997 0.004297 0.082368 0.003931
